<mxfile host="app.diagrams.net" modified="2023-06-14T12:22:37.530Z" agent="Mozilla/5.0 (Windows NT 10.0; Win64; x64) AppleWebKit/537.36 (KHTML, like Gecko) Chrome/114.0.0.0 Safari/537.36" version="21.3.8" etag="126cNH-iEGwazYBw7ZwC" type="device">
  <diagram id="Aa8zE_odiTU9IzYDQZ5F" name="Pagina-1">
    <mxGraphModel dx="1562" dy="829" grid="1" gridSize="10" guides="1" tooltips="1" connect="1" arrows="1" fold="1" page="1" pageScale="1" pageWidth="827" pageHeight="1169" math="0" shadow="0">
      <root>
        <mxCell id="0" />
        <mxCell id="1" parent="0" />
        <mxCell id="pjYMbwaHNJNmNYDUiAKb-1" value="" style="rounded=1;whiteSpace=wrap;html=1;fillColor=#FFFFFF;fontColor=#ffffff;strokeColor=#6F0000;" vertex="1" parent="1">
          <mxGeometry x="20" y="180" width="760" height="600" as="geometry" />
        </mxCell>
        <mxCell id="pjYMbwaHNJNmNYDUiAKb-2" value="" style="rounded=1;whiteSpace=wrap;html=1;fillColor=#FFFF33;fontColor=#ffffff;strokeColor=#001DBC;" vertex="1" parent="1">
          <mxGeometry x="315" y="360" width="150" height="150" as="geometry" />
        </mxCell>
        <mxCell id="pjYMbwaHNJNmNYDUiAKb-27" style="edgeStyle=orthogonalEdgeStyle;rounded=1;orthogonalLoop=1;jettySize=auto;html=1;exitX=0.5;exitY=0;exitDx=0;exitDy=0;entryX=1;entryY=0.5;entryDx=0;entryDy=0;strokeColor=#000000;endArrow=none;endFill=0;" edge="1" parent="1" source="pjYMbwaHNJNmNYDUiAKb-6" target="pjYMbwaHNJNmNYDUiAKb-16">
          <mxGeometry relative="1" as="geometry">
            <Array as="points">
              <mxPoint x="665" y="465" />
            </Array>
          </mxGeometry>
        </mxCell>
        <mxCell id="pjYMbwaHNJNmNYDUiAKb-6" value="" style="rounded=1;whiteSpace=wrap;html=1;fillColor=#0050ef;fontColor=#ffffff;strokeColor=#001DBC;" vertex="1" parent="1">
          <mxGeometry x="590" y="510" width="150" height="150" as="geometry" />
        </mxCell>
        <mxCell id="pjYMbwaHNJNmNYDUiAKb-7" value="" style="ellipse;whiteSpace=wrap;html=1;aspect=fixed;fillColor=#6a00ff;fontColor=#ffffff;strokeColor=#3700CC;" vertex="1" parent="1">
          <mxGeometry x="350" y="210" width="80" height="80" as="geometry" />
        </mxCell>
        <mxCell id="pjYMbwaHNJNmNYDUiAKb-13" value="Internet Gateway" style="text;strokeColor=none;align=center;fillColor=none;html=1;verticalAlign=middle;whiteSpace=wrap;rounded=0;" vertex="1" parent="1">
          <mxGeometry x="360" y="235" width="60" height="30" as="geometry" />
        </mxCell>
        <mxCell id="pjYMbwaHNJNmNYDUiAKb-14" value="Public Subnet&lt;br&gt;&lt;div style=&quot;color: rgb(204, 204, 204); font-family: Consolas, &amp;quot;Courier New&amp;quot;, monospace; font-size: 14px; line-height: 19px;&quot;&gt;172.16.52.0&lt;/div&gt;" style="text;strokeColor=none;align=center;fillColor=none;html=1;verticalAlign=middle;whiteSpace=wrap;rounded=0;labelBackgroundColor=default;" vertex="1" parent="1">
          <mxGeometry x="360" y="380" width="60" height="30" as="geometry" />
        </mxCell>
        <mxCell id="pjYMbwaHNJNmNYDUiAKb-15" value="Private Subnet&lt;br&gt;&lt;div style=&quot;color: rgb(204, 204, 204); font-family: Consolas, &amp;quot;Courier New&amp;quot;, monospace; font-size: 14px; line-height: 19px;&quot;&gt;10.0.2.0&lt;/div&gt;" style="text;strokeColor=none;align=center;fillColor=none;html=1;verticalAlign=middle;whiteSpace=wrap;rounded=0;labelBackgroundColor=default;" vertex="1" parent="1">
          <mxGeometry x="635" y="530" width="60" height="40" as="geometry" />
        </mxCell>
        <mxCell id="pjYMbwaHNJNmNYDUiAKb-28" style="edgeStyle=orthogonalEdgeStyle;rounded=0;orthogonalLoop=1;jettySize=auto;html=1;exitX=0.5;exitY=0;exitDx=0;exitDy=0;entryX=0.5;entryY=1;entryDx=0;entryDy=0;strokeColor=#000000;endArrow=open;endFill=0;" edge="1" parent="1" source="pjYMbwaHNJNmNYDUiAKb-16" target="pjYMbwaHNJNmNYDUiAKb-7">
          <mxGeometry relative="1" as="geometry">
            <Array as="points">
              <mxPoint x="414" y="420" />
              <mxPoint x="500" y="420" />
              <mxPoint x="500" y="320" />
              <mxPoint x="390" y="320" />
            </Array>
          </mxGeometry>
        </mxCell>
        <mxCell id="pjYMbwaHNJNmNYDUiAKb-16" value="" style="rounded=1;whiteSpace=wrap;html=1;fillColor=#6a00ff;fontColor=#ffffff;strokeColor=#3700CC;" vertex="1" parent="1">
          <mxGeometry x="384" y="435" width="60" height="60" as="geometry" />
        </mxCell>
        <mxCell id="pjYMbwaHNJNmNYDUiAKb-17" value="NAT Gateway" style="text;strokeColor=none;align=center;fillColor=none;html=1;verticalAlign=middle;whiteSpace=wrap;rounded=0;" vertex="1" parent="1">
          <mxGeometry x="404" y="450" width="16" height="30" as="geometry" />
        </mxCell>
        <mxCell id="pjYMbwaHNJNmNYDUiAKb-30" style="edgeStyle=orthogonalEdgeStyle;rounded=0;orthogonalLoop=1;jettySize=auto;html=1;exitX=1;exitY=0.5;exitDx=0;exitDy=0;entryX=0;entryY=0.5;entryDx=0;entryDy=0;strokeColor=#0e0101;endArrow=none;endFill=0;" edge="1" parent="1" source="pjYMbwaHNJNmNYDUiAKb-24" target="pjYMbwaHNJNmNYDUiAKb-6">
          <mxGeometry relative="1" as="geometry" />
        </mxCell>
        <mxCell id="pjYMbwaHNJNmNYDUiAKb-24" value="" style="rounded=1;whiteSpace=wrap;html=1;fillColor=#4D9900;fontColor=#ffffff;strokeColor=#001DBC;" vertex="1" parent="1">
          <mxGeometry x="60" y="510" width="150" height="150" as="geometry" />
        </mxCell>
        <mxCell id="pjYMbwaHNJNmNYDUiAKb-26" value="Private Subnet&lt;br&gt;10..0.1.0&lt;br&gt;" style="text;align=center;html=1;verticalAlign=middle;whiteSpace=wrap;rounded=0;labelBackgroundColor=default;" vertex="1" parent="1">
          <mxGeometry x="105" y="540" width="60" height="30" as="geometry" />
        </mxCell>
      </root>
    </mxGraphModel>
  </diagram>
</mxfile>
